# xmcd CD database file
#
# Track frame offsets:
#	150
#	20061
#	43240
#	66138
#	91924
#	112807
#	134379
#	158901
#	179967
#	201031
#
# Disc length: 3012 seconds
#
# Revision: 0
# Processed by: cddbd v1.5.1PL0 Copyright (c) Steve Scherf et al.
# Submitted via: CDex 1.51
#
DISCID=8d0bc20a
DTITLE=Grupo Niche - A Prueba De Fuego
DYEAR=1997
DGENRE=Salsa
TTITLE0=Eres
TTITLE1=Cimarrón
TTITLE2=Mecánico
TTITLE3=Solo Un Cariño
TTITLE4=A Prueba De Fuego
TTITLE5=Estúpido
TTITLE6=La Cárcel
TTITLE7=Solo Tú Sabes
TTITLE8=Only You Know
TTITLE9=Busca Por Dentro
EXTD=YEAR: 1997
EXTT0=
EXTT1=
EXTT2=
EXTT3=
EXTT4=
EXTT5=
EXTT6=
EXTT7=
EXTT8=
EXTT9=
PLAYORDER=
